<svg width="20" height="20" viewBox="0 0 20 20" fill="none" xmlns="http://www.w3.org/2000/svg">
<path d="M9 2C13.4183 2 17 5.58172 17 10C17 11.8487 16.3729 13.551 15.3199 14.9056L19.7071 19.2929C20.0976 19.6834 20.0976 20.3166 19.7071 20.7071C19.3166 21.0976 18.6834 21.0976 18.2929 20.7071L13.9056 16.3199C12.551 17.3729 10.8487 18 9 18C4.58172 18 1 14.4183 1 10C1 5.58172 4.58172 2 9 2ZM9 4C5.68629 4 3 6.68629 3 10C3 13.3137 5.68629 16 9 16C12.3137 16 15 13.3137 15 10C15 6.68629 12.3137 4 9 4Z" fill="#6B7280"/>
</svg>
